<svg xmlns="http://www.w3.org/2000/svg" viewBox="0 0 178.51 193.42">
  <path fill="#2F4639" d="M124.92,85.73c19.91.87,36.62,13.6,42.54,32.81,4.01,13.01,2.35,26.21-3.11,38.65-9.12,21.34-28.83,35.69-52.59,35.82l-75.29.41-.03-146.43c-11.76,5.44-23.15,7.21-36.45,3.56L24.13,12.33C31.49,1.7,43.74-2.54,56.11,1.52c18.03,5.92,38.87-9.26,61.52,7.61,4.93,5.28,8.67,10.43,12.36,16.83l48.52,13.98c-4.78,21.08-22.57,35.59-44.61,34.9l-8.97,10.89ZM97.64,72.37c14.43-3.18,28.72-4.04,43.34-5.64,12.67-1.39,22.48-10.01,26.84-21.27l-39.82-11.41c-3.29-.94-5.89-3.85-7.37-6.9-5.32-10.97-15.26-18.23-27.79-18.24-15.12-.02-27.37,4.5-40,.28-8.51-2.84-17.07.06-22.07,7.75l-18.01,27.69c16.41-.07,32.41-8.08,38.9-23.08,1.47-.78,5.11-.09,6.64,1.26-2.26,8.01-7.21,14.05-13.94,18.95l.06,67.75c12.59-19.83,31.1-32.27,53.22-37.13ZM44.44,171.03c11.05-24.63,25.93-45.09,45.58-62.98,11.2-10.2,21.86-19.66,32.13-31.44-35.94,1.4-66.09,16.9-77.79,51.58l.07,42.85ZM114.78,184.95c10.25-.07,19.38-4.5,26.63-10.41,22.25-18.16,27.9-51.76,7.95-70.6-8.42-7.95-20.18-11.46-32.07-10.49l-21.99,19.96c-21.89,19.58-38.11,43.44-48.29,72.03l67.77-.49Z"/>
  <path fill="#2F4639" d="M106.54,33.61l-9.58-.31c-3.23-.11-6.4-4.81-3.97-7.34,8.14-.53,15.33-1.29,16.78,3.53.32,1.07-1.93,4.16-3.23,4.12Z"/>
</svg>
